<svg xmlns="http://www.w3.org/2000/svg" version="1.1" width="134px" height="134px" style="shape-rendering:geometricPrecision; text-rendering:geometricPrecision; image-rendering:optimizeQuality; fill-rule:evenodd; clip-rule:evenodd" xmlns:xlink="http://www.w3.org/1999/xlink" transform="rotate(0) scale(1, 1)">
<g><path style="opacity:1" fill="#6e777a" d="M 75.5,4.5 C 88.333,6.63605 100.666,10.4694 112.5,16C 113.381,16.7083 114.047,17.5416 114.5,18.5C 114.5,19.5 114.5,20.5 114.5,21.5C 112.142,20.8216 109.975,20.4883 108,20.5C 105.034,21.99 104.7,23.99 107,26.5C 107.667,25.8333 108.333,25.1667 109,24.5C 111.062,28.8947 114.396,31.8947 119,33.5C 120.519,35.1392 120.686,36.8058 119.5,38.5C 116.813,37.9394 116.813,38.6061 119.5,40.5C 119.833,40.5 120.167,40.5 120.5,40.5C 124.076,44.6391 126.909,49.3058 129,54.5C 129.877,56.6742 129.377,58.3409 127.5,59.5C 125.027,59.264 123.36,57.9307 122.5,55.5C 121.675,59.1224 121.175,62.789 121,66.5C 120.722,67.4158 120.222,68.0825 119.5,68.5C 119.5,68.1667 119.5,67.8333 119.5,67.5C 119.856,64.4359 119.023,61.7693 117,59.5C 116.601,59.7284 116.435,60.0618 116.5,60.5C 115.833,60.1667 115.167,59.8333 114.5,59.5C 109.49,54.6486 104.823,49.4819 100.5,44C 95.8797,43.1335 91.8797,41.1335 88.5,38C 84.9605,37.7181 81.4605,37.2181 78,36.5C 77.2352,36.5699 76.7352,36.9033 76.5,37.5C 73.8333,38.1667 71.1667,38.8333 68.5,39.5C 64.896,39.0485 61.896,40.0485 59.5,42.5C 57.1789,42.7711 55.1789,42.1045 53.5,40.5C 52.2638,41.2458 50.9305,41.5792 49.5,41.5C 44.4206,42.1918 39.7539,43.8584 35.5,46.5C 30.9187,54.7448 28.252,63.5782 27.5,73C 27.5085,74.7067 27.8418,76.2067 28.5,77.5C 28.9037,83.1771 28.237,88.6771 26.5,94C 27.3802,95.3561 27.7135,96.8561 27.5,98.5C 30.3843,99.6974 33.0509,101.364 35.5,103.5C 38.6966,102.271 40.6966,103.438 41.5,107C 44.9008,106.734 46.5674,108.234 46.5,111.5C 45.1667,111.5 43.8333,111.5 42.5,111.5C 38.306,109.817 34.4727,107.484 31,104.5C 30.7506,106.668 31.5839,108.335 33.5,109.5C 33.8333,109.5 34.1667,109.5 34.5,109.5C 36.8605,112.527 39.5271,115.194 42.5,117.5C 43.6836,120.849 46.017,123.015 49.5,124C 47.1902,124.497 44.8568,124.663 42.5,124.5C 28.8767,118.21 18.8767,108.21 12.5,94.5C 11.3717,93.7379 10.2051,93.0712 9,92.5C 5.84244,81.7471 4.67577,70.7471 5.5,59.5C 5.99051,53.7004 7.65717,48.367 10.5,43.5C 12.5329,41.8369 14.3662,39.8369 16,37.5C 17.312,33.5427 19.1453,29.876 21.5,26.5C 24.6184,24.4374 27.9518,22.604 31.5,21C 34.6603,18.9221 37.3269,16.4221 39.5,13.5C 41.1815,11.9925 43.1815,10.9925 45.5,10.5C 55.7633,8.46478 65.7633,6.46478 75.5,4.5 Z"/></g>
<g><path style="opacity:0.561" fill="#6e777a" d="M 75.5,4.5 C 65.7633,6.46478 55.7633,8.46478 45.5,10.5C 55.1225,7.00485 65.1225,5.00485 75.5,4.5 Z"/></g>
<g><path style="opacity:0.996" fill="#6e777a" d="M 39.5,13.5 C 37.3269,16.4221 34.6603,18.9221 31.5,21C 27.9518,22.604 24.6184,24.4374 21.5,26.5C 26.3769,20.6247 32.3769,16.2914 39.5,13.5 Z"/></g>
<g><path style="opacity:0.09" fill="#6e777a" d="M 118.5,23.5 C 117.081,24.4511 115.415,24.7845 113.5,24.5C 113.167,23.1667 112.833,23.1667 112.5,24.5C 111.115,23.6977 111.282,23.0311 113,22.5C 114.766,23.2335 116.599,23.5668 118.5,23.5 Z"/></g>
<g><path style="opacity:0.788" fill="#6e777a" d="M 21.5,26.5 C 19.1453,29.876 17.312,33.5427 16,37.5C 14.3662,39.8369 12.5329,41.8369 10.5,43.5C 12.9243,36.9735 16.5909,31.3068 21.5,26.5 Z"/></g>
<g><path style="opacity:0.996" fill="#6e777a" d="M 114.5,18.5 C 116.531,19.5387 117.864,21.2054 118.5,23.5C 116.599,23.5668 114.766,23.2335 113,22.5C 111.282,23.0311 111.115,23.6977 112.5,24.5C 112.833,24.5 113.167,24.5 113.5,24.5C 117.493,27.4962 120.826,31.1629 123.5,35.5C 123.137,36.1835 122.804,36.8501 122.5,37.5C 122.631,38.2389 122.464,38.9056 122,39.5C 121.329,38.7476 120.496,38.4142 119.5,38.5C 120.686,36.8058 120.519,35.1392 119,33.5C 114.396,31.8947 111.062,28.8947 109,24.5C 108.333,25.1667 107.667,25.8333 107,26.5C 104.7,23.99 105.034,21.99 108,20.5C 109.975,20.4883 112.142,20.8216 114.5,21.5C 114.5,20.5 114.5,19.5 114.5,18.5 Z"/></g>
<g><path style="opacity:0.835" fill="#6e777a" d="M 68.5,39.5 C 65.7846,41.0719 62.7846,42.0719 59.5,42.5C 61.896,40.0485 64.896,39.0485 68.5,39.5 Z"/></g>
<g><path style="opacity:0.102" fill="#6e777a" d="M 119.5,38.5 C 120.496,38.4142 121.329,38.7476 122,39.5C 122.464,38.9056 122.631,38.2389 122.5,37.5C 123.478,37.811 124.145,38.4777 124.5,39.5C 123.311,40.4287 121.978,40.762 120.5,40.5C 120.167,39.1667 119.833,39.1667 119.5,40.5C 116.813,38.6061 116.813,37.9394 119.5,38.5 Z"/></g>
<g><path style="opacity:0.608" fill="#6e777a" d="M 59.5,42.5 C 57.0822,43.8657 54.4156,44.8657 51.5,45.5C 50.2867,45.2528 49.62,44.5862 49.5,43.5C 50.8333,43.1667 50.8333,42.8333 49.5,42.5C 49.5,42.1667 49.5,41.8333 49.5,41.5C 50.9305,41.5792 52.2638,41.2458 53.5,40.5C 55.1789,42.1045 57.1789,42.7711 59.5,42.5 Z"/></g>
<g><path style="opacity:1" fill="#6e777a" d="M 49.5,41.5 C 49.5,41.8333 49.5,42.1667 49.5,42.5C 49.5,42.8333 49.5,43.1667 49.5,43.5C 38.6307,46.5034 32.1307,53.5034 30,64.5C 28.9246,68.77 28.4246,73.1033 28.5,77.5C 27.8418,76.2067 27.5085,74.7067 27.5,73C 28.252,63.5782 30.9187,54.7448 35.5,46.5C 39.7539,43.8584 44.4206,42.1918 49.5,41.5 Z"/></g>
<g><path style="opacity:0.094" fill="#6e777a" d="M 76.5,37.5 C 76.7352,36.9033 77.2352,36.5699 78,36.5C 81.4605,37.2181 84.9605,37.7181 88.5,38C 91.8797,41.1335 95.8797,43.1335 100.5,44C 104.823,49.4819 109.49,54.6486 114.5,59.5C 109.214,57.7106 105.714,54.044 104,48.5C 100.238,44.8696 95.7382,42.7029 90.5,42C 89.5,41 88.5,40 87.5,39C 83.7858,38.6805 80.1191,38.1805 76.5,37.5 Z"/></g>
<g><path style="opacity:0.102" fill="#6e777a" d="M 119.5,67.5 C 118.659,65.1879 117.659,62.8546 116.5,60.5C 116.435,60.0618 116.601,59.7284 117,59.5C 119.023,61.7693 119.856,64.4359 119.5,67.5 Z"/></g>
<g><path style="opacity:0.441" fill="#6e777a" d="M 127.5,59.5 C 125.77,60.9118 124.27,60.5785 123,58.5C 122.501,62.8206 122.334,67.1539 122.5,71.5C 121.5,71.5 120.5,71.5 119.5,71.5C 119.5,70.5 119.5,69.5 119.5,68.5C 120.222,68.0825 120.722,67.4158 121,66.5C 121.175,62.789 121.675,59.1224 122.5,55.5C 123.36,57.9307 125.027,59.264 127.5,59.5 Z"/></g>
<g><path style="opacity:0.42" fill="#6e777a" d="M 97.5,111.5 C 97.1788,109.952 96.1788,109.285 94.5,109.5C 96.2593,106.81 98.5926,106.144 101.5,107.5C 100.591,109.375 99.2572,110.708 97.5,111.5 Z"/></g>
<g><path style="opacity:0.985" fill="#6e777a" d="M 28.5,77.5 C 34.9623,102.187 51.129,114.854 77,115.5C 77.3826,114.944 77.8826,114.611 78.5,114.5C 81.959,115.686 85.459,115.353 89,113.5C 91.0197,114.032 91.853,115.365 91.5,117.5C 88.0174,117.327 85.0174,118.327 82.5,120.5C 68.0678,121.817 54.7345,118.817 42.5,111.5C 43.8333,111.5 45.1667,111.5 46.5,111.5C 46.5674,108.234 44.9008,106.734 41.5,107C 40.6966,103.438 38.6966,102.271 35.5,103.5C 33.0509,101.364 30.3843,99.6974 27.5,98.5C 27.7135,96.8561 27.3802,95.3561 26.5,94C 28.237,88.6771 28.9037,83.1771 28.5,77.5 Z"/></g>
<g><path style="opacity:0.327" fill="#6e777a" d="M 94.5,109.5 C 96.1788,109.285 97.1788,109.952 97.5,111.5C 96.4036,114.386 94.4036,116.386 91.5,117.5C 91.853,115.365 91.0197,114.032 89,113.5C 85.459,115.353 81.959,115.686 78.5,114.5C 84.2496,114.027 89.5829,112.36 94.5,109.5 Z"/></g>
<g><path style="opacity:0.035" fill="#6e777a" d="M 42.5,111.5 C 54.7345,118.817 68.0678,121.817 82.5,120.5C 74.9546,121.827 67.2879,121.66 59.5,120C 50.6647,117.579 42.3313,114.079 34.5,109.5C 34.1667,108.167 33.8333,108.167 33.5,109.5C 31.5839,108.335 30.7506,106.668 31,104.5C 34.4727,107.484 38.306,109.817 42.5,111.5 Z"/></g>
<g><path style="opacity:0.827" fill="#6e777a" d="M 91.5,117.5 C 88.9164,119.472 85.9164,120.472 82.5,120.5C 85.0174,118.327 88.0174,117.327 91.5,117.5 Z"/></g>
<g><path style="opacity:0.075" fill="#6e777a" d="M 5.5,59.5 C 4.67577,70.7471 5.84244,81.7471 9,92.5C 10.2051,93.0712 11.3717,93.7379 12.5,94.5C 18.8767,108.21 28.8767,118.21 42.5,124.5C 43.937,125.725 45.6036,126.725 47.5,127.5C 48.6956,127.154 48.6956,126.654 47.5,126C 48.1667,125.833 48.8333,125.667 49.5,125.5C 55.9965,127.733 62.6632,129.066 69.5,129.5C 62.887,130.419 56.387,129.419 50,126.5C 48.9335,128.283 47.4335,128.783 45.5,128C 30.4489,121.615 19.2823,111.115 12,96.5C 11,97.8333 10,97.8333 9,96.5C 4.58646,84.3417 3.41979,72.0083 5.5,59.5 Z"/></g>
<g><path style="opacity:0.004" fill="#6e777a" d="M 60.5,123.5 C 60.8966,122.475 61.5632,122.308 62.5,123C 61.9056,123.464 61.2389,123.631 60.5,123.5 Z"/></g>
<g><path style="opacity:0.004" fill="#6e777a" d="M 63.5,122.5 C 64.8333,123.167 64.8333,123.167 63.5,122.5 Z"/></g>
<g><path style="opacity:0.004" fill="#6e777a" d="M 65.5,122.5 C 66.8333,123.167 66.8333,123.167 65.5,122.5 Z"/></g>
<g><path style="opacity:0.925" fill="#6e777a" d="M 42.5,117.5 C 50.9329,123.275 60.2663,126.275 70.5,126.5C 70.7373,127.791 70.404,128.791 69.5,129.5C 62.6632,129.066 55.9965,127.733 49.5,125.5C 48.8333,125.667 48.1667,125.833 47.5,126C 48.6956,126.654 48.6956,127.154 47.5,127.5C 45.6036,126.725 43.937,125.725 42.5,124.5C 44.8568,124.663 47.1902,124.497 49.5,124C 46.017,123.015 43.6836,120.849 42.5,117.5 Z"/></g>
</svg>